G75*
%MOIN*%
%OFA0B0*%
%FSLAX25Y25*%
%IPPOS*%
%LPD*%
%AMOC8*
5,1,8,0,0,1.08239X$1,22.5*
%
%ADD10C,0.00600*%
%ADD11OC8,0.07500*%
%ADD12OC8,0.08500*%
%ADD13C,0.07400*%
%ADD14C,0.10000*%
%ADD15C,0.06400*%
%ADD16C,0.17000*%
%ADD17C,0.06000*%
%ADD18R,0.06299X0.10630*%
%ADD19OC8,0.05200*%
%ADD20C,0.03200*%
%ADD21C,0.02978*%
D10*
X0155300Y0187300D02*
X0158856Y0187300D01*
X0157078Y0187300D02*
X0157078Y0193700D01*
X0155300Y0192278D01*
X0165009Y0190500D02*
X0165007Y0190359D01*
X0165001Y0190219D01*
X0164992Y0190078D01*
X0164979Y0189938D01*
X0164962Y0189798D01*
X0164942Y0189659D01*
X0164917Y0189521D01*
X0164889Y0189383D01*
X0164858Y0189246D01*
X0164822Y0189109D01*
X0164783Y0188974D01*
X0164741Y0188840D01*
X0164695Y0188707D01*
X0164645Y0188575D01*
X0164592Y0188445D01*
X0164536Y0188316D01*
X0164476Y0188189D01*
X0163232Y0187300D02*
X0163161Y0187302D01*
X0163090Y0187308D01*
X0163020Y0187317D01*
X0162950Y0187331D01*
X0162881Y0187348D01*
X0162814Y0187368D01*
X0162747Y0187393D01*
X0162682Y0187421D01*
X0162618Y0187452D01*
X0162556Y0187487D01*
X0162496Y0187525D01*
X0162438Y0187566D01*
X0162383Y0187610D01*
X0162330Y0187658D01*
X0162280Y0187708D01*
X0162232Y0187760D01*
X0162187Y0187815D01*
X0162146Y0187873D01*
X0162107Y0187933D01*
X0162072Y0187994D01*
X0162040Y0188058D01*
X0162012Y0188123D01*
X0161987Y0188189D01*
X0161810Y0188722D02*
X0164654Y0192278D01*
X0164477Y0192811D02*
X0164452Y0192877D01*
X0164424Y0192942D01*
X0164392Y0193006D01*
X0164357Y0193067D01*
X0164318Y0193127D01*
X0164277Y0193185D01*
X0164232Y0193240D01*
X0164184Y0193292D01*
X0164134Y0193342D01*
X0164081Y0193390D01*
X0164026Y0193434D01*
X0163968Y0193475D01*
X0163908Y0193513D01*
X0163846Y0193548D01*
X0163782Y0193579D01*
X0163717Y0193607D01*
X0163650Y0193632D01*
X0163583Y0193652D01*
X0163514Y0193669D01*
X0163444Y0193683D01*
X0163374Y0193692D01*
X0163303Y0193698D01*
X0163232Y0193700D01*
X0163161Y0193698D01*
X0163090Y0193692D01*
X0163020Y0193683D01*
X0162950Y0193669D01*
X0162881Y0193652D01*
X0162814Y0193632D01*
X0162747Y0193607D01*
X0162682Y0193579D01*
X0162618Y0193548D01*
X0162556Y0193513D01*
X0162496Y0193475D01*
X0162438Y0193434D01*
X0162383Y0193390D01*
X0162330Y0193342D01*
X0162280Y0193292D01*
X0162232Y0193240D01*
X0162187Y0193185D01*
X0162146Y0193127D01*
X0162107Y0193067D01*
X0162072Y0193006D01*
X0162040Y0192942D01*
X0162012Y0192877D01*
X0161987Y0192811D01*
X0164476Y0192811D02*
X0164536Y0192684D01*
X0164592Y0192555D01*
X0164645Y0192425D01*
X0164695Y0192293D01*
X0164741Y0192160D01*
X0164783Y0192026D01*
X0164822Y0191891D01*
X0164858Y0191754D01*
X0164889Y0191617D01*
X0164917Y0191479D01*
X0164942Y0191341D01*
X0164962Y0191202D01*
X0164979Y0191062D01*
X0164992Y0190922D01*
X0165001Y0190781D01*
X0165007Y0190641D01*
X0165009Y0190500D01*
X0161454Y0190500D02*
X0161456Y0190641D01*
X0161462Y0190781D01*
X0161471Y0190922D01*
X0161484Y0191062D01*
X0161501Y0191202D01*
X0161521Y0191341D01*
X0161546Y0191479D01*
X0161574Y0191617D01*
X0161605Y0191754D01*
X0161641Y0191891D01*
X0161680Y0192026D01*
X0161722Y0192160D01*
X0161768Y0192293D01*
X0161818Y0192425D01*
X0161871Y0192555D01*
X0161927Y0192684D01*
X0161987Y0192811D01*
X0164477Y0188189D02*
X0164452Y0188123D01*
X0164424Y0188058D01*
X0164392Y0187994D01*
X0164357Y0187933D01*
X0164318Y0187873D01*
X0164277Y0187815D01*
X0164232Y0187760D01*
X0164184Y0187708D01*
X0164134Y0187658D01*
X0164081Y0187610D01*
X0164025Y0187566D01*
X0163968Y0187525D01*
X0163908Y0187487D01*
X0163846Y0187452D01*
X0163782Y0187421D01*
X0163717Y0187393D01*
X0163650Y0187368D01*
X0163583Y0187348D01*
X0163514Y0187331D01*
X0163444Y0187317D01*
X0163374Y0187308D01*
X0163303Y0187302D01*
X0163232Y0187300D01*
X0167348Y0186589D02*
X0170193Y0194411D01*
X0169741Y0197800D02*
X0167608Y0197800D01*
X0169741Y0197800D02*
X0169815Y0197802D01*
X0169890Y0197808D01*
X0169963Y0197818D01*
X0170037Y0197831D01*
X0170109Y0197848D01*
X0170180Y0197870D01*
X0170251Y0197894D01*
X0170319Y0197923D01*
X0170387Y0197955D01*
X0170452Y0197991D01*
X0170515Y0198029D01*
X0170577Y0198072D01*
X0170636Y0198117D01*
X0170693Y0198165D01*
X0170747Y0198216D01*
X0170798Y0198270D01*
X0170846Y0198327D01*
X0170891Y0198386D01*
X0170934Y0198448D01*
X0170972Y0198511D01*
X0171008Y0198576D01*
X0171040Y0198644D01*
X0171069Y0198712D01*
X0171093Y0198783D01*
X0171115Y0198854D01*
X0171132Y0198926D01*
X0171145Y0199000D01*
X0171155Y0199073D01*
X0171161Y0199148D01*
X0171163Y0199222D01*
X0171164Y0199222D02*
X0171164Y0199933D01*
X0171163Y0199933D02*
X0171161Y0200007D01*
X0171155Y0200082D01*
X0171145Y0200155D01*
X0171132Y0200229D01*
X0171115Y0200301D01*
X0171093Y0200372D01*
X0171069Y0200443D01*
X0171040Y0200511D01*
X0171008Y0200579D01*
X0170972Y0200644D01*
X0170934Y0200707D01*
X0170891Y0200769D01*
X0170846Y0200828D01*
X0170798Y0200885D01*
X0170747Y0200939D01*
X0170693Y0200990D01*
X0170636Y0201038D01*
X0170577Y0201083D01*
X0170515Y0201126D01*
X0170452Y0201164D01*
X0170387Y0201200D01*
X0170319Y0201232D01*
X0170251Y0201261D01*
X0170180Y0201285D01*
X0170109Y0201307D01*
X0170037Y0201324D01*
X0169963Y0201337D01*
X0169890Y0201347D01*
X0169815Y0201353D01*
X0169741Y0201355D01*
X0169741Y0201356D02*
X0167608Y0201356D01*
X0167608Y0204200D01*
X0171164Y0204200D01*
X0172524Y0208300D02*
X0173947Y0208300D01*
X0172524Y0208300D02*
X0172460Y0208302D01*
X0172395Y0208308D01*
X0172332Y0208317D01*
X0172269Y0208331D01*
X0172207Y0208348D01*
X0172146Y0208369D01*
X0172086Y0208394D01*
X0172028Y0208422D01*
X0171972Y0208454D01*
X0171918Y0208489D01*
X0171866Y0208527D01*
X0171816Y0208568D01*
X0171770Y0208613D01*
X0171725Y0208659D01*
X0171684Y0208709D01*
X0171646Y0208761D01*
X0171611Y0208815D01*
X0171579Y0208871D01*
X0171551Y0208929D01*
X0171526Y0208989D01*
X0171505Y0209050D01*
X0171488Y0209112D01*
X0171474Y0209175D01*
X0171465Y0209238D01*
X0171459Y0209303D01*
X0171457Y0209367D01*
X0171458Y0209367D02*
X0171458Y0211500D01*
X0171457Y0211500D02*
X0171459Y0211564D01*
X0171465Y0211629D01*
X0171474Y0211692D01*
X0171488Y0211755D01*
X0171505Y0211817D01*
X0171526Y0211878D01*
X0171551Y0211938D01*
X0171579Y0211996D01*
X0171611Y0212052D01*
X0171646Y0212106D01*
X0171684Y0212158D01*
X0171725Y0212208D01*
X0171770Y0212254D01*
X0171816Y0212299D01*
X0171866Y0212340D01*
X0171918Y0212378D01*
X0171972Y0212413D01*
X0172028Y0212445D01*
X0172086Y0212473D01*
X0172146Y0212498D01*
X0172207Y0212519D01*
X0172269Y0212536D01*
X0172332Y0212550D01*
X0172395Y0212559D01*
X0172460Y0212565D01*
X0172524Y0212567D01*
X0173947Y0212567D01*
X0176169Y0211144D02*
X0176169Y0209367D01*
X0176169Y0210433D02*
X0179013Y0210433D01*
X0179013Y0211144D01*
X0179011Y0211218D01*
X0179005Y0211293D01*
X0178995Y0211366D01*
X0178982Y0211440D01*
X0178965Y0211512D01*
X0178943Y0211583D01*
X0178919Y0211654D01*
X0178890Y0211722D01*
X0178858Y0211790D01*
X0178822Y0211855D01*
X0178784Y0211918D01*
X0178741Y0211980D01*
X0178696Y0212039D01*
X0178648Y0212096D01*
X0178597Y0212150D01*
X0178543Y0212201D01*
X0178486Y0212249D01*
X0178427Y0212294D01*
X0178365Y0212337D01*
X0178302Y0212375D01*
X0178237Y0212411D01*
X0178169Y0212443D01*
X0178101Y0212472D01*
X0178030Y0212496D01*
X0177959Y0212518D01*
X0177887Y0212535D01*
X0177813Y0212548D01*
X0177740Y0212558D01*
X0177665Y0212564D01*
X0177591Y0212566D01*
X0177517Y0212564D01*
X0177442Y0212558D01*
X0177369Y0212548D01*
X0177295Y0212535D01*
X0177223Y0212518D01*
X0177152Y0212496D01*
X0177081Y0212472D01*
X0177013Y0212443D01*
X0176945Y0212411D01*
X0176880Y0212375D01*
X0176817Y0212337D01*
X0176755Y0212294D01*
X0176696Y0212249D01*
X0176639Y0212201D01*
X0176585Y0212150D01*
X0176534Y0212096D01*
X0176486Y0212039D01*
X0176441Y0211980D01*
X0176398Y0211918D01*
X0176360Y0211855D01*
X0176324Y0211790D01*
X0176292Y0211722D01*
X0176263Y0211654D01*
X0176239Y0211583D01*
X0176217Y0211512D01*
X0176200Y0211440D01*
X0176187Y0211366D01*
X0176177Y0211293D01*
X0176171Y0211218D01*
X0176169Y0211144D01*
X0176169Y0209367D02*
X0176171Y0209303D01*
X0176177Y0209238D01*
X0176186Y0209175D01*
X0176200Y0209112D01*
X0176217Y0209050D01*
X0176238Y0208989D01*
X0176263Y0208929D01*
X0176291Y0208871D01*
X0176323Y0208815D01*
X0176358Y0208761D01*
X0176396Y0208709D01*
X0176437Y0208659D01*
X0176482Y0208613D01*
X0176528Y0208568D01*
X0176578Y0208527D01*
X0176630Y0208489D01*
X0176684Y0208454D01*
X0176740Y0208422D01*
X0176798Y0208394D01*
X0176858Y0208369D01*
X0176919Y0208348D01*
X0176981Y0208331D01*
X0177044Y0208317D01*
X0177107Y0208308D01*
X0177172Y0208302D01*
X0177236Y0208300D01*
X0179013Y0208300D01*
X0178412Y0204200D02*
X0178412Y0197800D01*
X0182309Y0197800D02*
X0182309Y0202067D01*
X0182487Y0203844D02*
X0182131Y0203844D01*
X0182131Y0204200D01*
X0182487Y0204200D01*
X0182487Y0203844D01*
X0180189Y0204200D02*
X0176634Y0204200D01*
X0168728Y0208300D02*
X0168728Y0211500D01*
X0168728Y0210789D02*
X0167128Y0210789D01*
X0168728Y0211500D02*
X0168726Y0211564D01*
X0168720Y0211629D01*
X0168711Y0211692D01*
X0168697Y0211755D01*
X0168680Y0211817D01*
X0168659Y0211878D01*
X0168634Y0211938D01*
X0168606Y0211996D01*
X0168574Y0212052D01*
X0168539Y0212106D01*
X0168501Y0212158D01*
X0168460Y0212208D01*
X0168415Y0212254D01*
X0168369Y0212299D01*
X0168319Y0212340D01*
X0168267Y0212378D01*
X0168213Y0212413D01*
X0168157Y0212445D01*
X0168099Y0212473D01*
X0168039Y0212498D01*
X0167978Y0212519D01*
X0167916Y0212536D01*
X0167853Y0212550D01*
X0167790Y0212559D01*
X0167725Y0212565D01*
X0167661Y0212567D01*
X0166239Y0212567D01*
X0163976Y0212567D02*
X0163976Y0211856D01*
X0163976Y0212567D02*
X0161843Y0212567D01*
X0161843Y0208300D01*
X0158856Y0208300D02*
X0158856Y0211856D01*
X0157789Y0211856D01*
X0155300Y0213278D02*
X0155302Y0213352D01*
X0155308Y0213427D01*
X0155318Y0213500D01*
X0155331Y0213574D01*
X0155348Y0213646D01*
X0155370Y0213717D01*
X0155394Y0213788D01*
X0155423Y0213856D01*
X0155455Y0213924D01*
X0155491Y0213989D01*
X0155529Y0214052D01*
X0155572Y0214114D01*
X0155617Y0214173D01*
X0155665Y0214229D01*
X0155716Y0214284D01*
X0155770Y0214335D01*
X0155827Y0214383D01*
X0155886Y0214428D01*
X0155948Y0214471D01*
X0156011Y0214509D01*
X0156076Y0214545D01*
X0156144Y0214577D01*
X0156212Y0214606D01*
X0156283Y0214630D01*
X0156354Y0214652D01*
X0156426Y0214669D01*
X0156500Y0214682D01*
X0156573Y0214692D01*
X0156648Y0214698D01*
X0156722Y0214700D01*
X0158856Y0214700D01*
X0155300Y0213278D02*
X0155300Y0209722D01*
X0155302Y0209648D01*
X0155308Y0209573D01*
X0155318Y0209500D01*
X0155331Y0209426D01*
X0155348Y0209354D01*
X0155370Y0209283D01*
X0155394Y0209212D01*
X0155423Y0209144D01*
X0155455Y0209076D01*
X0155491Y0209011D01*
X0155529Y0208948D01*
X0155572Y0208886D01*
X0155617Y0208827D01*
X0155665Y0208770D01*
X0155716Y0208716D01*
X0155770Y0208665D01*
X0155827Y0208617D01*
X0155886Y0208572D01*
X0155948Y0208529D01*
X0156011Y0208491D01*
X0156076Y0208455D01*
X0156144Y0208423D01*
X0156212Y0208394D01*
X0156283Y0208370D01*
X0156354Y0208348D01*
X0156426Y0208331D01*
X0156500Y0208318D01*
X0156573Y0208308D01*
X0156648Y0208302D01*
X0156722Y0208300D01*
X0158856Y0208300D01*
X0158856Y0204200D02*
X0155300Y0204200D01*
X0155300Y0201356D01*
X0157433Y0201356D01*
X0157433Y0201355D02*
X0157507Y0201353D01*
X0157582Y0201347D01*
X0157655Y0201337D01*
X0157729Y0201324D01*
X0157801Y0201307D01*
X0157872Y0201285D01*
X0157943Y0201261D01*
X0158011Y0201232D01*
X0158079Y0201200D01*
X0158144Y0201164D01*
X0158207Y0201126D01*
X0158269Y0201083D01*
X0158328Y0201038D01*
X0158385Y0200990D01*
X0158439Y0200939D01*
X0158490Y0200885D01*
X0158538Y0200828D01*
X0158583Y0200769D01*
X0158626Y0200707D01*
X0158664Y0200644D01*
X0158700Y0200579D01*
X0158732Y0200511D01*
X0158761Y0200443D01*
X0158785Y0200372D01*
X0158807Y0200301D01*
X0158824Y0200229D01*
X0158837Y0200155D01*
X0158847Y0200082D01*
X0158853Y0200007D01*
X0158855Y0199933D01*
X0158856Y0199933D02*
X0158856Y0199222D01*
X0158855Y0199222D02*
X0158853Y0199148D01*
X0158847Y0199073D01*
X0158837Y0199000D01*
X0158824Y0198926D01*
X0158807Y0198854D01*
X0158785Y0198783D01*
X0158761Y0198712D01*
X0158732Y0198644D01*
X0158700Y0198576D01*
X0158664Y0198511D01*
X0158626Y0198448D01*
X0158583Y0198386D01*
X0158538Y0198327D01*
X0158490Y0198270D01*
X0158439Y0198216D01*
X0158385Y0198165D01*
X0158328Y0198117D01*
X0158269Y0198072D01*
X0158207Y0198029D01*
X0158144Y0197991D01*
X0158079Y0197955D01*
X0158011Y0197923D01*
X0157943Y0197894D01*
X0157872Y0197870D01*
X0157801Y0197848D01*
X0157729Y0197831D01*
X0157655Y0197818D01*
X0157582Y0197808D01*
X0157507Y0197802D01*
X0157433Y0197800D01*
X0155300Y0197800D01*
X0161454Y0197800D02*
X0163587Y0197800D01*
X0163661Y0197802D01*
X0163736Y0197808D01*
X0163809Y0197818D01*
X0163883Y0197831D01*
X0163955Y0197848D01*
X0164026Y0197870D01*
X0164097Y0197894D01*
X0164165Y0197923D01*
X0164233Y0197955D01*
X0164298Y0197991D01*
X0164361Y0198029D01*
X0164423Y0198072D01*
X0164482Y0198117D01*
X0164539Y0198165D01*
X0164593Y0198216D01*
X0164644Y0198270D01*
X0164692Y0198327D01*
X0164737Y0198386D01*
X0164780Y0198448D01*
X0164818Y0198511D01*
X0164854Y0198576D01*
X0164886Y0198644D01*
X0164915Y0198712D01*
X0164939Y0198783D01*
X0164961Y0198854D01*
X0164978Y0198926D01*
X0164991Y0199000D01*
X0165001Y0199073D01*
X0165007Y0199148D01*
X0165009Y0199222D01*
X0165010Y0199222D02*
X0165010Y0199933D01*
X0165009Y0199933D02*
X0165007Y0200007D01*
X0165001Y0200082D01*
X0164991Y0200155D01*
X0164978Y0200229D01*
X0164961Y0200301D01*
X0164939Y0200372D01*
X0164915Y0200443D01*
X0164886Y0200511D01*
X0164854Y0200579D01*
X0164818Y0200644D01*
X0164780Y0200707D01*
X0164737Y0200769D01*
X0164692Y0200828D01*
X0164644Y0200885D01*
X0164593Y0200939D01*
X0164539Y0200990D01*
X0164482Y0201038D01*
X0164423Y0201083D01*
X0164361Y0201126D01*
X0164298Y0201164D01*
X0164233Y0201200D01*
X0164165Y0201232D01*
X0164097Y0201261D01*
X0164026Y0201285D01*
X0163955Y0201307D01*
X0163883Y0201324D01*
X0163809Y0201337D01*
X0163736Y0201347D01*
X0163661Y0201353D01*
X0163587Y0201355D01*
X0163587Y0201356D02*
X0161454Y0201356D01*
X0161454Y0204200D01*
X0165010Y0204200D01*
X0167128Y0208300D02*
X0168728Y0208300D01*
X0167128Y0208300D02*
X0167058Y0208302D01*
X0166989Y0208308D01*
X0166920Y0208318D01*
X0166851Y0208331D01*
X0166784Y0208349D01*
X0166717Y0208370D01*
X0166652Y0208395D01*
X0166588Y0208423D01*
X0166526Y0208455D01*
X0166466Y0208491D01*
X0166408Y0208529D01*
X0166352Y0208571D01*
X0166299Y0208616D01*
X0166248Y0208664D01*
X0166200Y0208715D01*
X0166155Y0208768D01*
X0166113Y0208824D01*
X0166075Y0208882D01*
X0166039Y0208942D01*
X0166007Y0209004D01*
X0165979Y0209068D01*
X0165954Y0209133D01*
X0165933Y0209200D01*
X0165915Y0209267D01*
X0165902Y0209336D01*
X0165892Y0209405D01*
X0165886Y0209474D01*
X0165884Y0209544D01*
X0165886Y0209614D01*
X0165892Y0209683D01*
X0165902Y0209752D01*
X0165915Y0209821D01*
X0165933Y0209888D01*
X0165954Y0209955D01*
X0165979Y0210020D01*
X0166007Y0210084D01*
X0166039Y0210146D01*
X0166075Y0210206D01*
X0166113Y0210264D01*
X0166155Y0210320D01*
X0166200Y0210373D01*
X0166248Y0210424D01*
X0166299Y0210472D01*
X0166352Y0210517D01*
X0166408Y0210559D01*
X0166466Y0210597D01*
X0166526Y0210633D01*
X0166588Y0210665D01*
X0166652Y0210693D01*
X0166717Y0210718D01*
X0166784Y0210739D01*
X0166851Y0210757D01*
X0166920Y0210770D01*
X0166989Y0210780D01*
X0167058Y0210786D01*
X0167128Y0210788D01*
X0181270Y0194411D02*
X0178425Y0186589D01*
X0176087Y0189078D02*
X0176085Y0188995D01*
X0176079Y0188912D01*
X0176069Y0188829D01*
X0176056Y0188746D01*
X0176038Y0188665D01*
X0176017Y0188584D01*
X0175992Y0188505D01*
X0175963Y0188427D01*
X0175931Y0188350D01*
X0175895Y0188275D01*
X0175856Y0188201D01*
X0175813Y0188130D01*
X0175767Y0188060D01*
X0175717Y0187993D01*
X0175665Y0187928D01*
X0175610Y0187866D01*
X0175551Y0187806D01*
X0175490Y0187749D01*
X0175427Y0187695D01*
X0175361Y0187644D01*
X0175292Y0187597D01*
X0175222Y0187552D01*
X0175149Y0187511D01*
X0175075Y0187474D01*
X0174999Y0187439D01*
X0174921Y0187409D01*
X0174843Y0187382D01*
X0174762Y0187359D01*
X0174681Y0187339D01*
X0174599Y0187324D01*
X0174517Y0187312D01*
X0174434Y0187304D01*
X0174351Y0187300D01*
X0174267Y0187300D01*
X0174184Y0187304D01*
X0174101Y0187312D01*
X0174019Y0187324D01*
X0173937Y0187339D01*
X0173856Y0187359D01*
X0173775Y0187382D01*
X0173697Y0187409D01*
X0173619Y0187439D01*
X0173543Y0187474D01*
X0173469Y0187511D01*
X0173396Y0187552D01*
X0173326Y0187597D01*
X0173257Y0187644D01*
X0173191Y0187695D01*
X0173128Y0187749D01*
X0173067Y0187806D01*
X0173008Y0187866D01*
X0172953Y0187928D01*
X0172901Y0187993D01*
X0172851Y0188060D01*
X0172805Y0188130D01*
X0172762Y0188201D01*
X0172723Y0188275D01*
X0172687Y0188350D01*
X0172655Y0188427D01*
X0172626Y0188505D01*
X0172601Y0188584D01*
X0172580Y0188665D01*
X0172562Y0188746D01*
X0172549Y0188829D01*
X0172539Y0188912D01*
X0172533Y0188995D01*
X0172531Y0189078D01*
X0172533Y0189161D01*
X0172539Y0189244D01*
X0172549Y0189327D01*
X0172562Y0189410D01*
X0172580Y0189491D01*
X0172601Y0189572D01*
X0172626Y0189651D01*
X0172655Y0189729D01*
X0172687Y0189806D01*
X0172723Y0189881D01*
X0172762Y0189955D01*
X0172805Y0190026D01*
X0172851Y0190096D01*
X0172901Y0190163D01*
X0172953Y0190228D01*
X0173008Y0190290D01*
X0173067Y0190350D01*
X0173128Y0190407D01*
X0173191Y0190461D01*
X0173257Y0190512D01*
X0173326Y0190559D01*
X0173396Y0190604D01*
X0173469Y0190645D01*
X0173543Y0190682D01*
X0173619Y0190717D01*
X0173697Y0190747D01*
X0173775Y0190774D01*
X0173856Y0190797D01*
X0173937Y0190817D01*
X0174019Y0190832D01*
X0174101Y0190844D01*
X0174184Y0190852D01*
X0174267Y0190856D01*
X0174351Y0190856D01*
X0174434Y0190852D01*
X0174517Y0190844D01*
X0174599Y0190832D01*
X0174681Y0190817D01*
X0174762Y0190797D01*
X0174843Y0190774D01*
X0174921Y0190747D01*
X0174999Y0190717D01*
X0175075Y0190682D01*
X0175149Y0190645D01*
X0175222Y0190604D01*
X0175292Y0190559D01*
X0175361Y0190512D01*
X0175427Y0190461D01*
X0175490Y0190407D01*
X0175551Y0190350D01*
X0175610Y0190290D01*
X0175665Y0190228D01*
X0175717Y0190163D01*
X0175767Y0190096D01*
X0175813Y0190026D01*
X0175856Y0189955D01*
X0175895Y0189881D01*
X0175931Y0189806D01*
X0175963Y0189729D01*
X0175992Y0189651D01*
X0176017Y0189572D01*
X0176038Y0189491D01*
X0176056Y0189410D01*
X0176069Y0189327D01*
X0176079Y0189244D01*
X0176085Y0189161D01*
X0176087Y0189078D01*
X0175731Y0192278D02*
X0175729Y0192204D01*
X0175723Y0192129D01*
X0175713Y0192056D01*
X0175700Y0191982D01*
X0175683Y0191910D01*
X0175661Y0191839D01*
X0175637Y0191768D01*
X0175608Y0191700D01*
X0175576Y0191632D01*
X0175540Y0191567D01*
X0175502Y0191504D01*
X0175459Y0191442D01*
X0175414Y0191383D01*
X0175366Y0191326D01*
X0175315Y0191272D01*
X0175261Y0191221D01*
X0175204Y0191173D01*
X0175145Y0191128D01*
X0175083Y0191085D01*
X0175020Y0191047D01*
X0174955Y0191011D01*
X0174887Y0190979D01*
X0174819Y0190950D01*
X0174748Y0190926D01*
X0174677Y0190904D01*
X0174605Y0190887D01*
X0174531Y0190874D01*
X0174458Y0190864D01*
X0174383Y0190858D01*
X0174309Y0190856D01*
X0174235Y0190858D01*
X0174160Y0190864D01*
X0174087Y0190874D01*
X0174013Y0190887D01*
X0173941Y0190904D01*
X0173870Y0190926D01*
X0173799Y0190950D01*
X0173731Y0190979D01*
X0173663Y0191011D01*
X0173598Y0191047D01*
X0173535Y0191085D01*
X0173473Y0191128D01*
X0173414Y0191173D01*
X0173357Y0191221D01*
X0173303Y0191272D01*
X0173252Y0191326D01*
X0173204Y0191383D01*
X0173159Y0191442D01*
X0173116Y0191504D01*
X0173078Y0191567D01*
X0173042Y0191632D01*
X0173010Y0191700D01*
X0172981Y0191768D01*
X0172957Y0191839D01*
X0172935Y0191910D01*
X0172918Y0191982D01*
X0172905Y0192056D01*
X0172895Y0192129D01*
X0172889Y0192204D01*
X0172887Y0192278D01*
X0172889Y0192352D01*
X0172895Y0192427D01*
X0172905Y0192500D01*
X0172918Y0192574D01*
X0172935Y0192646D01*
X0172957Y0192717D01*
X0172981Y0192788D01*
X0173010Y0192856D01*
X0173042Y0192924D01*
X0173078Y0192989D01*
X0173116Y0193052D01*
X0173159Y0193114D01*
X0173204Y0193173D01*
X0173252Y0193230D01*
X0173303Y0193284D01*
X0173357Y0193335D01*
X0173414Y0193383D01*
X0173473Y0193428D01*
X0173535Y0193471D01*
X0173598Y0193509D01*
X0173663Y0193545D01*
X0173731Y0193577D01*
X0173799Y0193606D01*
X0173870Y0193630D01*
X0173941Y0193652D01*
X0174013Y0193669D01*
X0174087Y0193682D01*
X0174160Y0193692D01*
X0174235Y0193698D01*
X0174309Y0193700D01*
X0174383Y0193698D01*
X0174458Y0193692D01*
X0174531Y0193682D01*
X0174605Y0193669D01*
X0174677Y0193652D01*
X0174748Y0193630D01*
X0174819Y0193606D01*
X0174887Y0193577D01*
X0174955Y0193545D01*
X0175020Y0193509D01*
X0175083Y0193471D01*
X0175145Y0193428D01*
X0175204Y0193383D01*
X0175261Y0193335D01*
X0175315Y0193284D01*
X0175366Y0193230D01*
X0175414Y0193173D01*
X0175459Y0193114D01*
X0175502Y0193052D01*
X0175540Y0192989D01*
X0175576Y0192924D01*
X0175608Y0192856D01*
X0175637Y0192788D01*
X0175661Y0192717D01*
X0175683Y0192646D01*
X0175700Y0192574D01*
X0175713Y0192500D01*
X0175723Y0192427D01*
X0175729Y0192352D01*
X0175731Y0192278D01*
X0183608Y0192278D02*
X0185386Y0193700D01*
X0185386Y0187300D01*
X0183608Y0187300D02*
X0187164Y0187300D01*
X0190474Y0187300D02*
X0190578Y0187302D01*
X0190682Y0187308D01*
X0190785Y0187317D01*
X0190888Y0187330D01*
X0190991Y0187347D01*
X0191092Y0187368D01*
X0191193Y0187392D01*
X0191293Y0187421D01*
X0191392Y0187452D01*
X0191490Y0187488D01*
X0191586Y0187527D01*
X0191681Y0187569D01*
X0191774Y0187615D01*
X0191866Y0187664D01*
X0191956Y0187716D01*
X0192043Y0187772D01*
X0192129Y0187831D01*
X0192212Y0187893D01*
X0192293Y0187958D01*
X0192372Y0188026D01*
X0192448Y0188097D01*
X0192521Y0188170D01*
X0192592Y0188246D01*
X0192660Y0188325D01*
X0192725Y0188406D01*
X0192787Y0188489D01*
X0192846Y0188575D01*
X0192902Y0188662D01*
X0192954Y0188752D01*
X0193003Y0188844D01*
X0193049Y0188937D01*
X0193091Y0189032D01*
X0193130Y0189128D01*
X0193166Y0189226D01*
X0193197Y0189325D01*
X0193226Y0189425D01*
X0193250Y0189526D01*
X0193271Y0189627D01*
X0193288Y0189730D01*
X0193301Y0189833D01*
X0193310Y0189936D01*
X0193316Y0190040D01*
X0193318Y0190144D01*
X0193318Y0191922D01*
X0193318Y0190144D02*
X0191185Y0190144D01*
X0191185Y0190145D02*
X0191111Y0190147D01*
X0191036Y0190153D01*
X0190963Y0190163D01*
X0190889Y0190176D01*
X0190817Y0190193D01*
X0190746Y0190215D01*
X0190675Y0190239D01*
X0190607Y0190268D01*
X0190539Y0190300D01*
X0190474Y0190336D01*
X0190411Y0190374D01*
X0190349Y0190417D01*
X0190290Y0190462D01*
X0190233Y0190510D01*
X0190179Y0190561D01*
X0190128Y0190615D01*
X0190080Y0190672D01*
X0190035Y0190731D01*
X0189992Y0190793D01*
X0189954Y0190856D01*
X0189918Y0190921D01*
X0189886Y0190989D01*
X0189857Y0191057D01*
X0189833Y0191128D01*
X0189811Y0191199D01*
X0189794Y0191271D01*
X0189781Y0191345D01*
X0189771Y0191418D01*
X0189765Y0191493D01*
X0189763Y0191567D01*
X0189762Y0191567D02*
X0189762Y0191922D01*
X0189764Y0192005D01*
X0189770Y0192088D01*
X0189780Y0192171D01*
X0189793Y0192254D01*
X0189811Y0192335D01*
X0189832Y0192416D01*
X0189857Y0192495D01*
X0189886Y0192573D01*
X0189918Y0192650D01*
X0189954Y0192725D01*
X0189993Y0192799D01*
X0190036Y0192870D01*
X0190082Y0192940D01*
X0190132Y0193007D01*
X0190184Y0193072D01*
X0190239Y0193134D01*
X0190298Y0193194D01*
X0190359Y0193251D01*
X0190422Y0193305D01*
X0190488Y0193356D01*
X0190557Y0193403D01*
X0190627Y0193448D01*
X0190700Y0193489D01*
X0190774Y0193526D01*
X0190850Y0193561D01*
X0190928Y0193591D01*
X0191006Y0193618D01*
X0191087Y0193641D01*
X0191168Y0193661D01*
X0191250Y0193676D01*
X0191332Y0193688D01*
X0191415Y0193696D01*
X0191498Y0193700D01*
X0191582Y0193700D01*
X0191665Y0193696D01*
X0191748Y0193688D01*
X0191830Y0193676D01*
X0191912Y0193661D01*
X0191993Y0193641D01*
X0192074Y0193618D01*
X0192152Y0193591D01*
X0192230Y0193561D01*
X0192306Y0193526D01*
X0192380Y0193489D01*
X0192453Y0193448D01*
X0192523Y0193403D01*
X0192592Y0193356D01*
X0192658Y0193305D01*
X0192721Y0193251D01*
X0192782Y0193194D01*
X0192841Y0193134D01*
X0192896Y0193072D01*
X0192948Y0193007D01*
X0192998Y0192940D01*
X0193044Y0192870D01*
X0193087Y0192799D01*
X0193126Y0192725D01*
X0193162Y0192650D01*
X0193194Y0192573D01*
X0193223Y0192495D01*
X0193248Y0192416D01*
X0193269Y0192335D01*
X0193287Y0192254D01*
X0193300Y0192171D01*
X0193310Y0192088D01*
X0193316Y0192005D01*
X0193318Y0191922D01*
X0193236Y0197800D02*
X0195014Y0197800D01*
X0193236Y0197800D02*
X0193172Y0197802D01*
X0193107Y0197808D01*
X0193044Y0197817D01*
X0192981Y0197831D01*
X0192919Y0197848D01*
X0192858Y0197869D01*
X0192798Y0197894D01*
X0192740Y0197922D01*
X0192684Y0197954D01*
X0192630Y0197989D01*
X0192578Y0198027D01*
X0192528Y0198068D01*
X0192482Y0198113D01*
X0192437Y0198159D01*
X0192396Y0198209D01*
X0192358Y0198261D01*
X0192323Y0198315D01*
X0192291Y0198371D01*
X0192263Y0198429D01*
X0192238Y0198489D01*
X0192217Y0198550D01*
X0192200Y0198612D01*
X0192186Y0198675D01*
X0192177Y0198738D01*
X0192171Y0198803D01*
X0192169Y0198867D01*
X0192169Y0200644D01*
X0192169Y0199933D02*
X0195014Y0199933D01*
X0195014Y0200644D01*
X0195012Y0200718D01*
X0195006Y0200793D01*
X0194996Y0200866D01*
X0194983Y0200940D01*
X0194966Y0201012D01*
X0194944Y0201083D01*
X0194920Y0201154D01*
X0194891Y0201222D01*
X0194859Y0201290D01*
X0194823Y0201355D01*
X0194785Y0201418D01*
X0194742Y0201480D01*
X0194697Y0201539D01*
X0194649Y0201596D01*
X0194598Y0201650D01*
X0194544Y0201701D01*
X0194487Y0201749D01*
X0194428Y0201794D01*
X0194366Y0201837D01*
X0194303Y0201875D01*
X0194238Y0201911D01*
X0194170Y0201943D01*
X0194102Y0201972D01*
X0194031Y0201996D01*
X0193960Y0202018D01*
X0193888Y0202035D01*
X0193814Y0202048D01*
X0193741Y0202058D01*
X0193666Y0202064D01*
X0193592Y0202066D01*
X0193518Y0202064D01*
X0193443Y0202058D01*
X0193370Y0202048D01*
X0193296Y0202035D01*
X0193224Y0202018D01*
X0193153Y0201996D01*
X0193082Y0201972D01*
X0193014Y0201943D01*
X0192946Y0201911D01*
X0192881Y0201875D01*
X0192818Y0201837D01*
X0192756Y0201794D01*
X0192697Y0201749D01*
X0192640Y0201701D01*
X0192586Y0201650D01*
X0192535Y0201596D01*
X0192487Y0201539D01*
X0192442Y0201480D01*
X0192399Y0201418D01*
X0192361Y0201355D01*
X0192325Y0201290D01*
X0192293Y0201222D01*
X0192264Y0201154D01*
X0192240Y0201083D01*
X0192218Y0201012D01*
X0192201Y0200940D01*
X0192188Y0200866D01*
X0192178Y0200793D01*
X0192172Y0200718D01*
X0192170Y0200644D01*
X0189366Y0201000D02*
X0189366Y0197800D01*
X0187232Y0197800D02*
X0187232Y0202067D01*
X0188299Y0202067D02*
X0185099Y0202067D01*
X0185099Y0197800D01*
X0189366Y0201000D02*
X0189364Y0201064D01*
X0189358Y0201129D01*
X0189349Y0201192D01*
X0189335Y0201255D01*
X0189318Y0201317D01*
X0189297Y0201378D01*
X0189272Y0201438D01*
X0189244Y0201496D01*
X0189212Y0201552D01*
X0189177Y0201606D01*
X0189139Y0201658D01*
X0189098Y0201708D01*
X0189053Y0201754D01*
X0189007Y0201799D01*
X0188957Y0201840D01*
X0188905Y0201878D01*
X0188851Y0201913D01*
X0188795Y0201945D01*
X0188737Y0201973D01*
X0188677Y0201998D01*
X0188616Y0202019D01*
X0188554Y0202036D01*
X0188491Y0202050D01*
X0188428Y0202059D01*
X0188363Y0202065D01*
X0188299Y0202067D01*
X0186822Y0208300D02*
X0185044Y0208300D01*
X0185044Y0214700D01*
X0186822Y0214700D01*
X0186904Y0214698D01*
X0186986Y0214692D01*
X0187068Y0214683D01*
X0187149Y0214670D01*
X0187229Y0214653D01*
X0187309Y0214632D01*
X0187387Y0214608D01*
X0187464Y0214580D01*
X0187540Y0214549D01*
X0187615Y0214514D01*
X0187687Y0214475D01*
X0187758Y0214434D01*
X0187827Y0214389D01*
X0187893Y0214341D01*
X0187958Y0214290D01*
X0188020Y0214236D01*
X0188079Y0214179D01*
X0188136Y0214120D01*
X0188190Y0214058D01*
X0188241Y0213993D01*
X0188289Y0213927D01*
X0188334Y0213858D01*
X0188375Y0213787D01*
X0188414Y0213715D01*
X0188449Y0213640D01*
X0188480Y0213564D01*
X0188508Y0213487D01*
X0188532Y0213409D01*
X0188553Y0213329D01*
X0188570Y0213249D01*
X0188583Y0213168D01*
X0188592Y0213086D01*
X0188598Y0213004D01*
X0188600Y0212922D01*
X0188600Y0210078D01*
X0188598Y0209996D01*
X0188592Y0209914D01*
X0188583Y0209832D01*
X0188570Y0209751D01*
X0188553Y0209671D01*
X0188532Y0209591D01*
X0188508Y0209513D01*
X0188480Y0209436D01*
X0188449Y0209360D01*
X0188414Y0209285D01*
X0188375Y0209213D01*
X0188334Y0209142D01*
X0188289Y0209073D01*
X0188241Y0209007D01*
X0188190Y0208942D01*
X0188136Y0208880D01*
X0188079Y0208821D01*
X0188020Y0208764D01*
X0187958Y0208710D01*
X0187893Y0208659D01*
X0187827Y0208611D01*
X0187758Y0208566D01*
X0187687Y0208525D01*
X0187615Y0208486D01*
X0187540Y0208451D01*
X0187464Y0208420D01*
X0187387Y0208392D01*
X0187309Y0208368D01*
X0187229Y0208347D01*
X0187149Y0208330D01*
X0187068Y0208317D01*
X0186986Y0208308D01*
X0186904Y0208302D01*
X0186822Y0208300D01*
X0191349Y0209722D02*
X0191349Y0211144D01*
X0191351Y0211218D01*
X0191357Y0211293D01*
X0191367Y0211366D01*
X0191380Y0211440D01*
X0191397Y0211512D01*
X0191419Y0211583D01*
X0191443Y0211654D01*
X0191472Y0211722D01*
X0191504Y0211790D01*
X0191540Y0211855D01*
X0191578Y0211918D01*
X0191621Y0211980D01*
X0191666Y0212039D01*
X0191714Y0212096D01*
X0191765Y0212150D01*
X0191819Y0212201D01*
X0191876Y0212249D01*
X0191935Y0212294D01*
X0191997Y0212337D01*
X0192060Y0212375D01*
X0192125Y0212411D01*
X0192193Y0212443D01*
X0192261Y0212472D01*
X0192332Y0212496D01*
X0192403Y0212518D01*
X0192475Y0212535D01*
X0192549Y0212548D01*
X0192622Y0212558D01*
X0192697Y0212564D01*
X0192771Y0212566D01*
X0192845Y0212564D01*
X0192920Y0212558D01*
X0192993Y0212548D01*
X0193067Y0212535D01*
X0193139Y0212518D01*
X0193210Y0212496D01*
X0193281Y0212472D01*
X0193349Y0212443D01*
X0193417Y0212411D01*
X0193482Y0212375D01*
X0193545Y0212337D01*
X0193607Y0212294D01*
X0193666Y0212249D01*
X0193723Y0212201D01*
X0193777Y0212150D01*
X0193828Y0212096D01*
X0193876Y0212039D01*
X0193921Y0211980D01*
X0193964Y0211918D01*
X0194002Y0211855D01*
X0194038Y0211790D01*
X0194070Y0211722D01*
X0194099Y0211654D01*
X0194123Y0211583D01*
X0194145Y0211512D01*
X0194162Y0211440D01*
X0194175Y0211366D01*
X0194185Y0211293D01*
X0194191Y0211218D01*
X0194193Y0211144D01*
X0194193Y0209722D01*
X0194191Y0209648D01*
X0194185Y0209573D01*
X0194175Y0209500D01*
X0194162Y0209426D01*
X0194145Y0209354D01*
X0194123Y0209283D01*
X0194099Y0209212D01*
X0194070Y0209144D01*
X0194038Y0209076D01*
X0194002Y0209011D01*
X0193964Y0208948D01*
X0193921Y0208886D01*
X0193876Y0208827D01*
X0193828Y0208770D01*
X0193777Y0208716D01*
X0193723Y0208665D01*
X0193666Y0208617D01*
X0193607Y0208572D01*
X0193545Y0208529D01*
X0193482Y0208491D01*
X0193417Y0208455D01*
X0193349Y0208423D01*
X0193281Y0208394D01*
X0193210Y0208370D01*
X0193139Y0208348D01*
X0193067Y0208331D01*
X0192993Y0208318D01*
X0192920Y0208308D01*
X0192845Y0208302D01*
X0192771Y0208300D01*
X0192697Y0208302D01*
X0192622Y0208308D01*
X0192549Y0208318D01*
X0192475Y0208331D01*
X0192403Y0208348D01*
X0192332Y0208370D01*
X0192261Y0208394D01*
X0192193Y0208423D01*
X0192125Y0208455D01*
X0192060Y0208491D01*
X0191997Y0208529D01*
X0191935Y0208572D01*
X0191876Y0208617D01*
X0191819Y0208665D01*
X0191765Y0208716D01*
X0191714Y0208770D01*
X0191666Y0208827D01*
X0191621Y0208886D01*
X0191578Y0208948D01*
X0191540Y0209011D01*
X0191504Y0209076D01*
X0191472Y0209144D01*
X0191443Y0209212D01*
X0191419Y0209283D01*
X0191397Y0209354D01*
X0191380Y0209426D01*
X0191367Y0209500D01*
X0191357Y0209573D01*
X0191351Y0209648D01*
X0191349Y0209722D01*
X0196888Y0208300D02*
X0196888Y0212567D01*
X0198665Y0212567D01*
X0198729Y0212565D01*
X0198794Y0212559D01*
X0198857Y0212550D01*
X0198920Y0212536D01*
X0198982Y0212519D01*
X0199043Y0212498D01*
X0199103Y0212473D01*
X0199161Y0212445D01*
X0199217Y0212413D01*
X0199271Y0212378D01*
X0199323Y0212340D01*
X0199373Y0212299D01*
X0199419Y0212254D01*
X0199464Y0212208D01*
X0199505Y0212158D01*
X0199543Y0212106D01*
X0199578Y0212052D01*
X0199610Y0211996D01*
X0199638Y0211938D01*
X0199663Y0211878D01*
X0199684Y0211817D01*
X0199701Y0211755D01*
X0199715Y0211692D01*
X0199724Y0211629D01*
X0199730Y0211564D01*
X0199732Y0211500D01*
X0199732Y0208300D01*
X0202397Y0209367D02*
X0202397Y0211500D01*
X0202399Y0211564D01*
X0202405Y0211629D01*
X0202414Y0211692D01*
X0202428Y0211755D01*
X0202445Y0211817D01*
X0202466Y0211878D01*
X0202491Y0211938D01*
X0202519Y0211996D01*
X0202551Y0212052D01*
X0202586Y0212106D01*
X0202624Y0212158D01*
X0202665Y0212208D01*
X0202710Y0212254D01*
X0202756Y0212299D01*
X0202806Y0212340D01*
X0202858Y0212378D01*
X0202912Y0212413D01*
X0202968Y0212445D01*
X0203026Y0212473D01*
X0203086Y0212498D01*
X0203147Y0212519D01*
X0203209Y0212536D01*
X0203272Y0212550D01*
X0203335Y0212559D01*
X0203400Y0212565D01*
X0203464Y0212567D01*
X0205242Y0212567D01*
X0205242Y0207233D01*
X0205240Y0207169D01*
X0205234Y0207104D01*
X0205225Y0207041D01*
X0205211Y0206978D01*
X0205194Y0206916D01*
X0205173Y0206855D01*
X0205148Y0206795D01*
X0205120Y0206737D01*
X0205088Y0206681D01*
X0205053Y0206627D01*
X0205015Y0206575D01*
X0204974Y0206525D01*
X0204929Y0206479D01*
X0204883Y0206434D01*
X0204833Y0206393D01*
X0204781Y0206355D01*
X0204727Y0206320D01*
X0204671Y0206288D01*
X0204613Y0206260D01*
X0204553Y0206235D01*
X0204492Y0206214D01*
X0204430Y0206197D01*
X0204367Y0206183D01*
X0204304Y0206174D01*
X0204239Y0206168D01*
X0204175Y0206166D01*
X0204175Y0206167D02*
X0202753Y0206167D01*
X0203464Y0208300D02*
X0205242Y0208300D01*
X0203464Y0208300D02*
X0203400Y0208302D01*
X0203335Y0208308D01*
X0203272Y0208317D01*
X0203209Y0208331D01*
X0203147Y0208348D01*
X0203086Y0208369D01*
X0203026Y0208394D01*
X0202968Y0208422D01*
X0202912Y0208454D01*
X0202858Y0208489D01*
X0202806Y0208527D01*
X0202756Y0208568D01*
X0202710Y0208613D01*
X0202665Y0208659D01*
X0202624Y0208709D01*
X0202586Y0208761D01*
X0202551Y0208815D01*
X0202519Y0208871D01*
X0202491Y0208929D01*
X0202466Y0208989D01*
X0202445Y0209050D01*
X0202428Y0209112D01*
X0202414Y0209175D01*
X0202405Y0209238D01*
X0202399Y0209303D01*
X0202397Y0209367D01*
X0199875Y0202067D02*
X0197741Y0202067D01*
X0197741Y0197800D01*
X0199875Y0201356D02*
X0199875Y0202067D01*
X0161454Y0190500D02*
X0161456Y0190359D01*
X0161462Y0190219D01*
X0161471Y0190078D01*
X0161484Y0189938D01*
X0161501Y0189798D01*
X0161521Y0189659D01*
X0161546Y0189521D01*
X0161574Y0189383D01*
X0161605Y0189246D01*
X0161641Y0189109D01*
X0161680Y0188974D01*
X0161722Y0188840D01*
X0161768Y0188707D01*
X0161818Y0188575D01*
X0161871Y0188445D01*
X0161927Y0188316D01*
X0161987Y0188189D01*
D11*
X0112000Y0086000D03*
X0112000Y0056000D03*
D12*
X0122500Y0146000D03*
X0181500Y0146000D03*
D13*
X0119000Y0128000D03*
X0109000Y0128000D03*
X0099000Y0128000D03*
X0098000Y0160017D03*
X0108000Y0159983D03*
D14*
X0135300Y0197000D02*
X0135300Y0207000D01*
X0048700Y0207000D02*
X0048700Y0197000D01*
D15*
X0059000Y0056000D03*
X0059000Y0066000D03*
X0059000Y0076000D03*
X0059000Y0086000D03*
X0089000Y0086000D03*
X0089000Y0076000D03*
X0089000Y0066000D03*
X0089000Y0056000D03*
D16*
X0066126Y0130496D03*
X0077937Y0149000D03*
X0054315Y0149000D03*
D17*
X0139000Y0079000D02*
X0139000Y0073000D01*
X0146000Y0056000D02*
X0152000Y0056000D01*
X0159000Y0073000D02*
X0159000Y0079000D01*
D18*
X0145512Y0124000D03*
X0134488Y0124000D03*
D19*
X0104000Y0109000D03*
X0054000Y0109000D03*
D20*
X0089000Y0086000D02*
X0096000Y0086000D01*
X0107000Y0075000D01*
X0118000Y0075000D01*
X0134488Y0091488D01*
X0134488Y0124000D01*
X0134488Y0201188D01*
X0135300Y0202000D01*
X0119000Y0128000D02*
X0123000Y0124000D01*
X0134488Y0124000D01*
X0145512Y0124000D02*
X0145512Y0082512D01*
X0139000Y0076000D01*
D21*
X0103000Y0170000D03*
M02*
