M48
;GenerationSoftware,Autodesk,EAGLE,9.5.0*%
;CreationDate,2019-10-22T16:37:56Z*%
FMAT,2
ICI,OFF
METRIC,TZ,000.000
T6C0.350
T5C0.813
T4C0.914
T3C1.016
T2C1.321
T1C2.997
%
G90
M71
T1
X19542Y37338
X13542Y37338
X16542Y32638
T2
X12116Y50800
X34112Y50800
T3
X45847Y36576
X30861Y36576
X29972Y32004
X27432Y32004
X24892Y32004
X37592Y13716
X40132Y18796
X35052Y18796
T4
X28194Y13716
X28194Y21336
T5
X24638Y40136
X27178Y40128
X14732Y21336
X14732Y18796
X22352Y18796
X22352Y21336
X14732Y16256
X14732Y13716
X22352Y16256
X22352Y13716
X26162Y27178
X13462Y27178
T6
X25908Y42672
X28194Y25146
X27432Y35306
X12954Y30226
M30